<svg data-name="Group 41454" xmlns="http://www.w3.org/2000/svg" xmlns:xlink="http://www.w3.org/1999/xlink" width="268.796" height="157.464" viewBox="0 0 268.796 157.464">
    <defs>
        <clipPath id="sgup032pmf">
            <path data-name="Rectangle 13502" style="fill:none" d="M0 0h268.796v157.464H0z"/>
        </clipPath>
        <clipPath id="tuf4ywg3rg">
            <path data-name="Path 27773" d="M169.829 2.655c-13.395 6.045-20.078 22.137-32.016 30.961-11.529 8.522-26.429 9.3-40.415 10.867-19.9 2.234-41.2 7.662-53.854 24.063-5.411 7.016-8.784 15.522-11.636 24.059a257.348 257.348 0 0 0-8.324 31.408c-1.647 8.3-.45 24.234 6.425 31.6l231.05-.737c.491-18.72.981-37.472-.18-56.158-1.03-16.573-3.4-33.232-9.3-48.625s-15.557-29.526-28.869-38.331C213.948 5.97 203.88 2.639 193.675.939A62.477 62.477 0 0 0 183.457 0a32.832 32.832 0 0 0-13.628 2.655" transform="translate(-22.926)" style="fill:none"/>
        </clipPath>
        <clipPath id="ymlqz7v7zh">
            <path data-name="Path 27774" d="M163.437 11.113c-13.395 6.048-20.077 22.136-32.016 30.961-11.529 8.522-26.429 9.3-40.415 10.867C71.109 55.174 49.8 60.6 37.152 77c-5.411 7.016-8.784 15.522-11.636 24.06a257.344 257.344 0 0 0-8.324 31.408c-1.647 8.3-.449 24.235 6.426 31.6l231.05-.737c.491-18.719.981-37.472-.18-56.158-1.03-16.573-3.4-33.232-9.3-48.625s-15.558-29.522-28.87-38.326c-8.761-5.794-18.829-9.122-29.035-10.822a62.477 62.477 0 0 0-10.218-.938 32.829 32.829 0 0 0-13.628 2.655" transform="translate(-16.534 -8.458)" style="fill:none"/>
        </clipPath>
        <clipPath id="n7734zdm8j">
            <path data-name="Path 27775" d="M759.118 25.338a10.788 10.788 0 1 1 12.069 9.333 10.9 10.9 0 0 1-1.382.088 10.789 10.789 0 0 1-10.687-9.421M763.723 1.2l-.317 4.623a19.049 19.049 0 0 0-1.8.74L758.123 3.5l-5.011 3.846 2.05 4.147q-.606.712-1.141 1.48l-4.475-.915-2.446 5.828 3.791 2.553q-.173.93-.255 1.886l-4.4 1.469.8 6.266 4.621.316a19.04 19.04 0 0 0 .772 1.871l-3.055 3.478 3.846 5.011 4.165-2.059-.023-.03q.718.609 1.493 1.145l-.922 4.509 5.825 2.443 2.585-3.839q.9.165 1.828.243l1.466 4.386 6.265-.8.316-4.613a19.1 19.1 0 0 0 1.841-.758l3.483 3.06 5.011-3.846-2.058-4.164-.009.007q.6-.71 1.133-1.475l4.5.92 2.443-5.825-3.823-2.574q.17-.919.249-1.862l4.385-1.466-.8-6.266-4.615-.316a19.11 19.11 0 0 0-.727-1.774L790.3 12.3l-3.846-5.011-4.142 2.047q-.714-.609-1.484-1.147l.913-4.466-5.825-2.443-2.542 3.775a19.193 19.193 0 0 0-1.919-.26l-1.469-4.4z" transform="translate(-746.244 -.395)" style="fill:none"/>
        </clipPath>
        <clipPath id="5v8a87temk">
            <path data-name="Path 27776" d="M790.758 285.935a6.459 6.459 0 1 1 6.406 5.647 6.467 6.467 0 0 1-6.406-5.647m2.76-14.47-.19 2.771a11.352 11.352 0 0 0-1.081.444l-2.086-1.833-3 2.3 1.229 2.486q-.363.427-.684.887l-2.682-.548-1.464 3.491 2.273 1.53a11.355 11.355 0 0 0-.153 1.13l-2.635.881.48 3.756 2.77.19a11.361 11.361 0 0 0 .463 1.122l-1.831 2.085 2.3 3 2.5-1.234-.014-.018q.43.365.9.686l-.552 2.7 3.491 1.464 1.55-2.3q.541.1 1.1.146l.879 2.628 3.755-.48.189-2.765a11.433 11.433 0 0 0 1.1-.455l2.088 1.834 3-2.3-1.234-2.5h-.005q.361-.426.679-.884l2.7.551 1.464-3.492-2.292-1.543q.1-.551.15-1.116l2.628-.879-.48-3.755-2.767-.189a11.43 11.43 0 0 0-.435-1.063l1.835-2.089-2.305-3-2.482 1.227q-.428-.365-.89-.687l.547-2.677-3.491-1.464-1.524 2.263a11.416 11.416 0 0 0-1.15-.156l-.881-2.634z" transform="translate(-783.042 -270.985)" style="fill:none"/>
        </clipPath>
        <clipPath id="qeyjx6s1em">
            <path data-name="Path 27777" d="M17.372 88.685c-2.873 3.45-5.336 18 0 19.959s24.645-1.761 24.645-1.761l7.015 5.446s-3.019-17.284-6.053-19.971c-2.245-1.988-13.617-4.935-20.542-4.935-2.434 0-4.318.364-5.065 1.261" transform="translate(-14.227 -87.424)" style="fill:none"/>
        </clipPath>
        <clipPath id="q10a82kjlo">
            <path data-name="Rectangle 13468" style="fill:none" d="M0 0h268.795v157.464H0z"/>
        </clipPath>
        <clipPath id="zmc8ycw74p">
            <path data-name="Path 27781" d="M1114.572 273.21c-2.4 2.125-4.788 15.8-4.788 15.8l5.549-4.309s15.275 2.944 19.5 1.393c1.811-.665 2.486-3.165 2.487-6.017v-.015c0-3.791-1.192-8.2-2.487-9.756-.591-.71-2.082-1-4.006-1-5.479 0-14.474 2.331-16.25 3.9" transform="translate(-1109.784 -269.306)" style="fill:none"/>
        </clipPath>
        <clipPath id="5uk3obhsxr">
            <path data-name="Path 27787" d="M231.153 25.485a11.112 11.112 0 1 0 11.112-11.112 11.112 11.112 0 0 0-11.112 11.112" transform="translate(-231.153 -14.373)" style="fill:none"/>
        </clipPath>
        <clipPath id="0hp97z66et">
            <path data-name="Path 27812" d="M508.319 54.948 449.536 55a6.589 6.589 0 0 0-6.391 6.77l.1 121.956a6.589 6.589 0 0 0 6.4 6.76l58.783-.048a6.589 6.589 0 0 0 6.391-6.771l-.1-121.956a6.588 6.588 0 0 0-6.4-6.76" transform="translate(-443.145 -54.948)" style="fill:none"/>
        </clipPath>
        <clipPath id="7gffopo6pv">
            <path data-name="Rectangle 13476" style="fill:none" d="M0 0h64.836v15.645H0z"/>
        </clipPath>
        <clipPath id="q9aje9mg2w">
            <path data-name="Path 27816" d="M466.7 306.236h49.192a7.822 7.822 0 0 1 0 15.645H466.7a7.822 7.822 0 0 1 0-15.645" transform="translate(-458.88 -306.236)" style="fill:none"/>
        </clipPath>
        <clipPath id="zdfpb85nhy">
            <path data-name="Rectangle 13478" style="fill:none" d="M0 0h64.836v24.799H0z"/>
        </clipPath>
        <clipPath id="eug0chopqz">
            <path data-name="Path 27817" d="M470.609 406.916h41.378a11.729 11.729 0 0 1 11.729 11.729v1.341a11.729 11.729 0 0 1-11.729 11.729h-41.378a11.729 11.729 0 0 1-11.729-11.729v-1.341a11.729 11.729 0 0 1 11.729-11.729" transform="translate(-458.88 -406.916)" style="fill:none"/>
        </clipPath>
        <clipPath id="sb54qut6mB">
            <path data-name="Path 27818" d="M470.609 544.85h41.378a11.729 11.729 0 0 1 11.729 11.729v1.341a11.729 11.729 0 0 1-11.729 11.729h-41.378a11.729 11.729 0 0 1-11.729-11.729v-1.341a11.729 11.729 0 0 1 11.729-11.729" transform="translate(-458.88 -544.85)" style="fill:none"/>
        </clipPath>
        <clipPath id="0mggkjn5aD">
            <path data-name="Rectangle 13482" style="fill:none" d="M0 0h53.633v10.489H0z"/>
        </clipPath>
        <clipPath id="j8h5t2ns5E">
            <path data-name="Path 27819" d="M489.892 92.337h43.144a5.244 5.244 0 1 1 0 10.489h-43.144a5.244 5.244 0 1 1 0-10.489" transform="translate(-484.648 -92.337)" style="fill:none"/>
        </clipPath>
        <clipPath id="k7h7udgdqG">
            <path data-name="Path 27821" d="M280.391 372.775a38.594 38.594 0 1 0 38.594-38.594 38.593 38.593 0 0 0-38.594 38.594" transform="translate(-280.391 -334.181)" style="fill:none"/>
        </clipPath>
        <clipPath id="g6s7ldgwrI">
            <path data-name="Rectangle 13485" style="fill:none" d="M0 0h8.47v20.274H0z"/>
        </clipPath>
        <clipPath id="xjhrmiyd7J">
            <path data-name="Rectangle 13486" style="fill:none" d="M0 0h4.169v15.552H0z"/>
        </clipPath>
        <clipPath id="0a5tdm230K">
            <path data-name="Rectangle 13487" style="fill:none" d="M0 0h2.871v5.535H0z"/>
        </clipPath>
        <clipPath id="dvns2ujq4L">
            <path data-name="Path 27870" d="M862.714 230.859c-.089 1.583 1.708 7.286 7.334 13.953a26.552 26.552 0 0 0 6.466 5.086q.193.126.384.241a5.418 5.418 0 0 0 1.015.449c.254.088.536.173.841.255 4.5 1.207 14.26 1.769 20.383.754-3.536-9.992-6.33-13.734-7.685-14.708l-3.484-.523a42.935 42.935 0 0 0-7.932-.379 10.657 10.657 0 0 1-3.281-.146 27.912 27.912 0 0 1-10.048-6.413 2.522 2.522 0 0 0-1.609-.492 2.138 2.138 0 0 0-2.384 1.925" transform="translate(-862.711 -228.934)" style="fill:none"/>
        </clipPath>
        <clipPath id="rkyf5sc6fM">
            <path data-name="Path 27872" d="M907.1 262.459c-3.543 1.082-6.633 6.814-9.261 12.482-.246.53-.512 1.113-.794 1.741-3.625 8.058-9.892 23.318-9.892 23.318a49.616 49.616 0 0 0 16.322 4.328c10.1 1.075 20.751-1.694 20.751-1.694a102 102 0 0 0-4.726-21.284q-.4-1.235-.785-2.368-.227-.663-.449-1.291l-.087-.245c-3.495-9.809-6.254-13.5-7.6-14.464a2.235 2.235 0 0 0-.247-.156 4.28 4.28 0 0 0-2.049-.55 4.044 4.044 0 0 0-1.189.183" transform="translate(-887.153 -262.276)" style="fill:none"/>
        </clipPath>
        <clipPath id="23qb6kg1eO">
            <path data-name="Path 27883" d="M1004.573 148.207c-.576 1.122-6.895 13.858-12 18.609-1.4 1.3-3.242 1.954-11.388 5.683-6.112 2.8-10.432 19.332-.463 17.522 7.425-1.348 19.117-12.78 21.3-15.575 7.288-9.341 6.98-23.834 6.075-25.831a2.053 2.053 0 0 0-1.864-1.374 1.889 1.889 0 0 0-1.656.965" transform="translate(-974.793 -147.242)" style="fill:none"/>
        </clipPath>
        <clipPath id="cqpfr6bs7Q">
            <path data-name="Path 27886" d="M792.3 127.163c4.012 1.259 12.62 1.677 16.45 2.857l3.841-6.865a66.663 66.663 0 0 1-10.451-13.213z" transform="translate(-792.304 -109.941)" style="fill:none"/>
        </clipPath>
        <clipPath id="ogz9j0l4yR">
            <path data-name="Path 27889" d="m867.883 177.436-1.051.852-1.241 2.219q-.311-.1-.662-.185a21.095 21.095 0 0 0 2.208.704c2.143.55 5.011.882 6.2-.8a1.634 1.634 0 0 0 .175-.407 3.5 3.5 0 0 0 .24-1.36c-.117-2.387-2.6-3.785-2.982-3.984l-.048-.025z" transform="translate(-864.929 -174.453)" style="fill:none"/>
        </clipPath>
        <clipPath id="hrypo5uc2T">
            <path data-name="Path 27890" d="m871.915 170.738-2.557 4.607-1.162 2.094a.126.126 0 0 0 .049.171l.136.076c.38.125.822.259 1.3.382l3.633-6.548a.125.125 0 0 0-.049-.171l-1.182-.657a.127.127 0 0 0-.171.049" transform="translate(-868.18 -170.674)" style="fill:none"/>
        </clipPath>
        <clipPath id="emja7q87fU">
            <path data-name="Rectangle 13500" style="fill:none" d="M0 0h5.153v7.394H0z"/>
        </clipPath>
        <clipPath id="wceambnh1V">
            <path data-name="Path 27891" d="m873.317 171.517-3.633 6.548a20.273 20.273 0 0 1-1.3-.382l-.136-.076a.126.126 0 0 1-.049-.171l1.162-2.094 2.557-4.607a.127.127 0 0 1 .171-.049l1.182.656a.126.126 0 0 1 .049.171" transform="translate(-868.18 -170.674)" style="fill:none"/>
        </clipPath>
        <linearGradient id="64236pxeha" x1="-.201" y1=".814" x2="-.2" y2=".814" gradientUnits="objectBoundingBox">
            <stop offset="0" stop-color="#eaeafd"/>
            <stop offset=".274" stop-color="#f0f0fd"/>
            <stop offset="1" stop-color="#fff"/>
        </linearGradient>
        <linearGradient id="utyhngxzpi" x1="-.193" y1=".807" x2="-.192" y2=".807" xlink:href="#64236pxeha"/>
        <linearGradient id="6eezsdldpb" x1="-3.023" y1="3.037" x2="-3.019" y2="3.037" gradientUnits="objectBoundingBox">
            <stop offset="0" stop-color="#fff"/>
            <stop offset="1" stop-color="#e5e3fd"/>
        </linearGradient>
        <linearGradient id="xricfxwr2l" x1="-5.332" y1="3.171" x2="-5.325" y2="3.171" gradientUnits="objectBoundingBox">
            <stop offset="0" stop-color="#fff"/>
            <stop offset=".134" stop-color="#fff"/>
            <stop offset=".477" stop-color="#e5e3fd"/>
            <stop offset="1" stop-color="#e5e3fd"/>
        </linearGradient>
        <linearGradient id="vf0jr46x2n" x1="-.094" y1="3.522" x2="-.087" y2="3.522" gradientUnits="objectBoundingBox">
            <stop offset="0" stop-color="#fff"/>
            <stop offset=".061" stop-color="#fff"/>
            <stop offset=".344" stop-color="#e5e3fd"/>
            <stop offset="1" stop-color="#e5e3fd"/>
        </linearGradient>
        <linearGradient id="oos6qrnlkq" x1="-7.65" y1="3.999" x2="-7.643" y2="3.999" gradientUnits="objectBoundingBox">
            <stop offset="0" stop-color="#e9e6fe"/>
            <stop offset=".002" stop-color="#e9e6fe"/>
            <stop offset="1" stop-color="#e5e3fd"/>
        </linearGradient>
        <linearGradient id="keqh79n4ms" x1="-1.538" y1="5.258" x2="-1.531" y2="5.258" xlink:href="#6eezsdldpb"/>
        <linearGradient id="mz2qzz4tru" x1="-1.344" y1="1.074" x2="-1.341" y2="1.074" xlink:href="#64236pxeha"/>
        <linearGradient id="82hw655gqx" x1="-2.408" y1="1.795" x2="-2.403" y2="1.795" xlink:href="#64236pxeha"/>
        <linearGradient id="344jreagqA" x1="-1.974" y1="1.324" x2="-1.97" y2="1.324" xlink:href="#64236pxeha"/>
        <linearGradient id="gkrwnmt9qC" x1="-1.974" y1=".888" x2="-1.97" y2=".888" xlink:href="#64236pxeha"/>
        <linearGradient id="bazx3c2ooF" x1="-3.227" y1="3.047" x2="-3.221" y2="3.047" xlink:href="#64236pxeha"/>
        <linearGradient id="dj5i19e7yH" x1="-.79" y1="1.099" x2="-.787" y2="1.099" xlink:href="#64236pxeha"/>
        <linearGradient id="9gt3mg9awc" x1="-5.134" y1="4.548" x2="-5.128" y2="4.548" gradientUnits="objectBoundingBox">
            <stop offset="0" stop-color="#9cbffc"/>
            <stop offset=".009" stop-color="#9cbffc"/>
            <stop offset=".113" stop-color="#8faeed"/>
            <stop offset=".298" stop-color="#7f97d8"/>
            <stop offset=".496" stop-color="#7386ca"/>
            <stop offset=".716" stop-color="#6c7dc1"/>
            <stop offset="1" stop-color="#6a7abf"/>
        </linearGradient>
        <linearGradient id="nhdzq8qt3N" x1="-3.426" y1="2.062" x2="-3.422" y2="2.062" xlink:href="#9gt3mg9awc"/>
        <linearGradient id="2xtrmyjepP" x1="-3.574" y1="2.468" x2="-3.57" y2="2.468" xlink:href="#9gt3mg9awc"/>
        <linearGradient id="5bdter51wd" x1="-6.088" y1="4.951" x2="-6.08" y2="4.951" gradientUnits="objectBoundingBox">
            <stop offset="0" stop-color="#4755ae"/>
            <stop offset=".005" stop-color="#4755ae"/>
            <stop offset=".067" stop-color="#4b56b1"/>
            <stop offset=".679" stop-color="#7167d3"/>
            <stop offset="1" stop-color="#806ee1"/>
        </linearGradient>
        <linearGradient id="rwszzqczaS" x1="-17.063" y1="10.634" x2="-17.043" y2="10.634" xlink:href="#5bdter51wd"/>
        <linearGradient id="bwgcbm1dxe" x1="-36.371" y1="16.278" x2="-36.329" y2="16.278" gradientUnits="objectBoundingBox">
            <stop offset="0" stop-color="#f7e4f4"/>
            <stop offset=".005" stop-color="#f7e4f4"/>
            <stop offset=".131" stop-color="#f7e6f5"/>
            <stop offset="1" stop-color="#fbf4fb"/>
        </linearGradient>
        <linearGradient id="l1c0myqm3W" x1="-36.371" y1="16.242" x2="-36.329" y2="16.242" xlink:href="#bwgcbm1dxe"/>
    </defs>
    <g data-name="Group 41453" style="clip-path:url(#sgup032pmf)">
        <g data-name="Group 41370">
            <g data-name="Group 41369" style="clip-path:url(#tuf4ywg3rg)" transform="translate(4.984)">
                <path data-name="Rectangle 13463" transform="rotate(-84.736 76.984 85.488)" style="fill:url(#64236pxeha)" d="M0 0h176.988v253.368H0z"/>
            </g>
        </g>
        <g data-name="Group 41372">
            <g data-name="Group 41371" style="clip-path:url(#ymlqz7v7zh)" transform="translate(3.594 1.839)">
                <path data-name="Rectangle 13464" transform="rotate(-84.736 76.984 85.489)" style="fill:url(#utyhngxzpi)" d="M0 0h176.988v253.368H0z"/>
            </g>
        </g>
        <g data-name="Group 41374">
            <g data-name="Group 41373" style="clip-path:url(#n7734zdm8j)" transform="translate(162.231 .086)">
                <path data-name="Rectangle 13465" transform="rotate(-7.285 2.99 46.947)" style="fill:url(#6eezsdldpb)" d="M0 0h52.737v52.737H0z"/>
            </g>
        </g>
        <g data-name="Group 41376">
            <g data-name="Group 41375" style="clip-path:url(#5v8a87temk)" transform="translate(170.231 58.911)">
                <path data-name="Rectangle 13466" transform="rotate(-7.285 1.789 28.141)" style="fill:url(#xricfxwr2l)" d="M0 0h31.61v31.61H0z"/>
            </g>
        </g>
        <g data-name="Group 41378">
            <g data-name="Group 41377" style="clip-path:url(#qeyjx6s1em)" transform="translate(3.093 19.006)">
                <path data-name="Rectangle 13467" transform="rotate(-76.83 11.031 16.665)" style="fill:url(#vf0jr46x2n)" d="M0 0h32.674v41.694H0z"/>
            </g>
        </g>
        <g data-name="Group 41380">
            <g data-name="Group 41379" style="clip-path:url(#q10a82kjlo)">
                <path data-name="Path 27778" d="M48.708 135.357a1.367 1.367 0 1 1-1.367-1.367 1.367 1.367 0 0 1 1.367 1.367" transform="translate(-35.979 -104.861)" style="fill:#fff"/>
                <path data-name="Path 27779" d="M81.432 135.357a1.367 1.367 0 1 1-1.367-1.367 1.367 1.367 0 0 1 1.367 1.367" transform="translate(-61.589 -104.861)" style="fill:#fff"/>
                <path data-name="Path 27780" d="M114.156 135.357a1.367 1.367 0 1 1-1.367-1.367 1.367 1.367 0 0 1 1.367 1.367" transform="translate(-87.199 -104.861)" style="fill:#fff"/>
            </g>
        </g>
        <g data-name="Group 41382">
            <g data-name="Group 41381" style="clip-path:url(#zmc8ycw74p)" transform="translate(241.263 58.546)">
                <path data-name="Rectangle 13469" transform="rotate(-13.159 2.242 19.441)" style="fill:url(#oos6qrnlkq)" d="M0 0h31.294v25.452H0z"/>
            </g>
        </g>
        <g data-name="Group 41384">
            <g data-name="Group 41383" style="clip-path:url(#q10a82kjlo)">
                <path data-name="Path 27782" d="M1201.364 307.223a1.081 1.081 0 1 0 1.081-1.081 1.082 1.082 0 0 0-1.081 1.081" transform="translate(-940.191 -239.588)" style="fill:#fff"/>
                <path data-name="Path 27783" d="M1175.479 307.223a1.081 1.081 0 1 0 1.081-1.081 1.081 1.081 0 0 0-1.081 1.081" transform="translate(-919.933 -239.588)" style="fill:#fff"/>
                <path data-name="Path 27784" d="M1149.593 307.223a1.081 1.081 0 1 0 1.081-1.081 1.081 1.081 0 0 0-1.081 1.081" transform="translate(-899.675 -239.588)" style="fill:#fff"/>
                <path data-name="Path 27785" d="M1150.125 599.435q.153-.425.322-.838l3.13 2.162s-1.253-2.375-2.315-3.94a26.386 26.386 0 0 1 2.55-4.017l2.565 3.286a45.515 45.515 0 0 0-1.191-4.952 29.8 29.8 0 0 1 5.342-4.793 24 24 0 0 1 .633 2.852c-1.246 1.339-2.629 3.115-2.629 3.115l2.88-1.314a30.8 30.8 0 0 1 .115 5.64 39.872 39.872 0 0 0-4.672 2.956l4.4-.65a23.219 23.219 0 0 1-1.057 4.12 20.2 20.2 0 0 1-.128.344 34.113 34.113 0 0 0-5.009 3.094l3.869-.572a26.865 26.865 0 0 1-2.844 4.306 43.438 43.438 0 0 0-4.43 2.84l2.167-.32a19.367 19.367 0 0 1-3.485 2.939 19.989 19.989 0 0 1-1.593-9.028l3.349 2.312a34.783 34.783 0 0 0-3.1-4.961 23.41 23.41 0 0 1 1.128-4.582" transform="translate(-898.996 -458.874)" style="fill:#6d5be1"/>
                <path data-name="Path 27786" d="M1094.3 538.314q-.075-.648-.122-1.291l5.436.784s-3.146-2.267-5.524-3.608a38.039 38.039 0 0 1 .718-6.832l5.426 2.6a65.709 65.709 0 0 0-4.72-5.639 43.028 43.028 0 0 1 3.83-9.629 34.761 34.761 0 0 1 2.651 3.282c-.752 2.532-1.4 5.717-1.4 5.717l2.88-3.549a44.441 44.441 0 0 1 3.772 7.219 57.579 57.579 0 0 0-4.142 6.823l5.272-3.666a33.473 33.473 0 0 1 1.279 6.006c.02.176.039.352.056.527-1.553 1.6-3.144 5.548-3.144 5.548l3.291-1.555a38.808 38.808 0 0 1-.911 7.4 62.757 62.757 0 0 0-3.9 6.518l2.6-1.806a27.98 27.98 0 0 1-2.618 6.039 28.862 28.862 0 0 1-7.86-10.651l3.346.212s-2.587-3.017-4.725-3.8a33.811 33.811 0 0 1-1.484-6.65" transform="translate(-856.237 -402.808)" style="fill:#12365b"/>
            </g>
        </g>
        <g data-name="Group 41386">
            <g data-name="Group 41385" style="clip-path:url(#5uk3obhsxr)" transform="translate(50.252 3.125)">
                <path data-name="Rectangle 13471" transform="rotate(-28.3 5.273 20.904)" style="fill:url(#keqh79n4ms)" d="M0 0h30.104v30.104H0z"/>
            </g>
        </g>
        <g data-name="Group 41388">
            <g data-name="Group 41387" style="clip-path:url(#q10a82kjlo)">
                <path data-name="Path 27788" d="M260.631 49.072a1.408 1.408 0 0 1-1.161-.605L254.926 42a.815.815 0 0 1 1.333-.937l4.335 6.168 4.575-10.3a.815.815 0 0 1 1.489.661l-4.736 10.664-.006.012a1.411 1.411 0 0 1-1.166.8h-.119" transform="translate(-199.39 -28.523)" style="fill:#fff"/>
                <path data-name="Path 27789" d="M260.063 715.627H1.207a1.207 1.207 0 1 1 0-2.414h258.856a1.207 1.207 0 1 1 0 2.414" transform="translate(0 -558.163)" style="fill:#59669d"/>
                <path data-name="Path 27790" d="M827.318 436.923c.364-.139.716-.309 1.079-.452a4.8 4.8 0 0 0 .974-.405c.069-.048.053-.181-.047-.173a3.4 3.4 0 0 0-1.008.342 9.575 9.575 0 0 0-1.075.5c-.1.055-.032.226.078.184" transform="translate(-647.365 -341.13)" style="fill:#b1b0f5"/>
                <path data-name="Path 27791" d="M830.688 435.386a8.651 8.651 0 0 1-.86-1.883.124.124 0 0 0-.239.066 4.318 4.318 0 0 0 .921 1.954c.083.1.244-.029.178-.137" transform="translate(-649.238 -339.192)" style="fill:#b1b0f5"/>
                <path data-name="Path 27792" d="M11.333 416.739c.364-.139.716-.309 1.079-.452a4.8 4.8 0 0 0 .974-.405c.069-.048.053-.181-.047-.173a3.4 3.4 0 0 0-1.009.342 9.6 9.6 0 0 0-1.075.5c-.1.055-.032.226.078.184" transform="translate(-8.772 -325.334)" style="fill:#b1b0f5"/>
                <path data-name="Path 27793" d="M14.7 415.2a8.644 8.644 0 0 1-.86-1.883.124.124 0 0 0-.239.066 4.318 4.318 0 0 0 .921 1.954c.083.1.244-.029.178-.137" transform="translate(-10.646 -323.396)" style="fill:#b1b0f5"/>
                <path data-name="Path 27794" d="M1191.68 381.333a3.837 3.837 0 0 0 .262.87 7.111 7.111 0 0 0-.738.361c-.1.055-.032.226.078.184.258-.1.51-.212.764-.321a4.408 4.408 0 0 0 .556.86c.083.1.244-.029.178-.137a8.18 8.18 0 0 1-.452-.84l.034-.014a4.8 4.8 0 0 0 .974-.405c.069-.048.053-.181-.047-.173a3.4 3.4 0 0 0-1.009.342l-.053.022c-.111-.26-.211-.528-.307-.815a.124.124 0 0 0-.239.066" transform="translate(-932.203 -298.312)" style="fill:#b1b0f5"/>
                <path data-name="Path 27795" d="M1010.716 134.656c.513-.2 1.009-.435 1.52-.635a4.908 4.908 0 0 0 1.295-.55c.089-.071.012-.216-.089-.216a4 4 0 0 0-1.39.473 12.918 12.918 0 0 0-1.441.677c-.13.075-.043.307.106.25" transform="translate(-790.857 -104.286)" style="fill:#b1b0f5"/>
                <path data-name="Path 27796" d="M1015.3 132.568a11.459 11.459 0 0 1-.681-1.181c-.208-.448-.324-.914-.487-1.377a.169.169 0 0 0-.325.09 5.7 5.7 0 0 0 1.251 2.655c.113.135.332-.039.241-.186" transform="translate(-793.404 -101.653)" style="fill:#b1b0f5"/>
                <path data-name="Path 27797" d="M279.464 418.849c.574-.068 1.622-.107 1.776.645a3.148 3.148 0 0 1-.177 1.131 1.508 1.508 0 0 0 .128 1.043 2 2 0 0 0 1.854.741 2.447 2.447 0 0 1 1.24.142 1.25 1.25 0 0 1 .485 1.265c-.07.67-.762 1.714-.238 2.325.58.676 1.688.174 2.423.294.311.051.742.233.713.611-.025.323-.323.621-.478.89a1.058 1.058 0 0 0 .3 1.558c.663.35 1.62-.073 2.056.687.576 1-.322 1.865-.667 2.746-.11.281.281.445.47.273 1.081-.978 1.723-3.635-.191-4.128a8.9 8.9 0 0 0-1.034-.108c-.438-.06-.559-.3-.337-.681.338-.585.835-1.192.4-1.877-.465-.734-1.4-.7-2.152-.635a1.716 1.716 0 0 1-.855-.027c-.234-.139-.09-.4-.024-.61a5.3 5.3 0 0 0 .327-1.536 1.775 1.775 0 0 0-1.286-1.824 5.524 5.524 0 0 0-1.285-.066c-.372 0-.908-.03-1.125-.388-.248-.407.074-1.01.12-1.441a1.427 1.427 0 0 0-.323-1.128 2.226 2.226 0 0 0-2.2-.492c-.311.091-.268.632.08.591" transform="translate(-218.483 -327.255)" style="fill:#b1b0f5"/>
                <path data-name="Path 27798" d="M1090.812 404.1c-.421-.555-.95-1.564-.075-1.977.616-.29 1.382-.294 1.694-1.011a2.213 2.213 0 0 0-.439-2.008 1.65 1.65 0 0 1-.388-1.261 1.573 1.573 0 0 1 1.078-.91c.647-.224 1.92-.216 1.892-1.171-.025-.845-.894-1.339-1.075-2.118-.24-1.03.831-.737 1.444-.794a1 1 0 0 0 .97-1.111c-.092-.739-.894-1.35-.412-2.105.6-.942 1.724-.609 2.638-.758a.283.283 0 0 0 .057-.541c-1.356-.423-3.9.256-3.52 2.12.082.4.977 1.567.247 1.7-.64.12-1.311-.191-1.83.359-.638.676-.208 1.641.244 2.277.21.295.858 1 .263 1.183a11.546 11.546 0 0 0-1.462.418 1.856 1.856 0 0 0-1.21 2.1 3.89 3.89 0 0 0 .513 1.042c.211.345.535.855.368 1.278s-.771.477-1.138.611a1.567 1.567 0 0 0-.924.748 2.147 2.147 0 0 0 .651 2.354c.253.239.611-.169.414-.429" transform="translate(-852.724 -303.816)" style="fill:#b1b0f5"/>
                <path data-name="Path 27799" d="m265.175 630.559-.094-.012a.208.208 0 0 0 .008-.222c-.353-.656-.695-1.318-1.065-1.965a.2.2 0 0 0-.317-.041 8.086 8.086 0 0 0-1.59 2.224.172.172 0 0 0 .147.256c.955-.032 1.934.046 2.884-.044.1-.01.148-.18.027-.2m-2.624-.1a8.164 8.164 0 0 1 1.244-1.662c.288.573.593 1.137.891 1.7-.705-.057-1.428-.036-2.135-.042" transform="translate(-205.119 -491.68)" style="fill:#b1b0f5"/>
                <path data-name="Path 27800" d="M1064.452 578.522a8.08 8.08 0 0 0-1.589 2.224.172.172 0 0 0 .147.256c.955-.032 1.934.046 2.884-.044.1-.01.148-.18.027-.2l-.093-.012a.209.209 0 0 0 .008-.222c-.353-.656-.695-1.318-1.065-1.964a.2.2 0 0 0-.317-.041m.979 2.186c-.706-.056-1.429-.036-2.135-.042a8.173 8.173 0 0 1 1.244-1.661c.288.573.594 1.137.892 1.7" transform="translate(-831.785 -452.708)" style="fill:#b1b0f5"/>
                <path data-name="Path 27801" d="M48.832 258.6a25.174 25.174 0 0 0-2.91-.1l.147.257a8.177 8.177 0 0 1 1.581-2.111l-.317-.041c.328.669.686 1.324 1.032 1.984.132.252.516.028.381-.223-.353-.656-.695-1.319-1.065-1.964a.2.2 0 0 0-.317-.041 8.087 8.087 0 0 0-1.59 2.224.173.173 0 0 0 .147.257c.955-.032 1.934.046 2.884-.044.1-.01.147-.18.027-.2" transform="translate(-35.808 -200.583)" style="fill:#b1b0f5"/>
                <path data-name="Path 27802" d="M343.232 172.486a24.861 24.861 0 0 0-2.492 1.45l.257.147a8.232 8.232 0 0 1 .215-2.625l-.3.121c.633.392 1.284.757 1.928 1.131a.221.221 0 0 0 .223-.382c-.647-.368-1.29-.748-1.947-1.1a.2.2 0 0 0-.3.121 8.129 8.129 0 0 0-.167 2.732c.013.117.138.227.257.147.792-.535 1.663-.99 2.421-1.571a.1.1 0 0 0-.1-.173" transform="translate(-266.56 -133.986)" style="fill:#b1b0f5"/>
                <path data-name="Path 27803" d="M515.126 103.156h3.374v.876h-2.306v1.609h2.144v.869h-2.144v2.477h-1.066z" transform="translate(-403.139 -80.731)" style="fill:#4d4a94"/>
                <path data-name="Path 27804" d="M535.374 103.072a9.645 9.645 0 0 1 1.615-.125 2.708 2.708 0 0 1 1.8.47 1.468 1.468 0 0 1 .5 1.171 1.542 1.542 0 0 1-1.061 1.457v.025a1.469 1.469 0 0 1 .813 1.129 12.863 12.863 0 0 0 .461 1.625h-1.094a7.538 7.538 0 0 1-.393-1.376c-.167-.76-.444-1.006-1.049-1.02h-.536v2.4h-1.057zm1.057 2.573h.63c.722 0 1.167-.381 1.167-.96 0-.634-.447-.932-1.135-.935a2.954 2.954 0 0 0-.662.054z" transform="translate(-418.985 -80.567)" style="fill:#4d4a94"/>
                <path data-name="Path 27805" d="M561.258 106.4h-2.2v1.71h2.457v.876H558v-5.83h3.394v.876h-2.328v1.5h2.2z" transform="translate(-436.689 -80.731)" style="fill:#4d4a94"/>
                <path data-name="Path 27806" d="M581.744 106.4h-2.2v1.71H582v.876h-3.522v-5.83h3.394v.876h-2.328v1.5h2.2z" transform="translate(-452.722 -80.731)" style="fill:#4d4a94"/>
                <path data-name="Path 27807" d="M604.758 104.052h-1.665v-.895h4.407v.895h-1.681v4.935h-1.066z" transform="translate(-471.983 -80.731)" style="fill:#4d4a94"/>
                <path data-name="Path 27808" d="M626.473 103.072a9.641 9.641 0 0 1 1.615-.125 2.708 2.708 0 0 1 1.8.47 1.468 1.468 0 0 1 .5 1.171 1.542 1.542 0 0 1-1.061 1.457v.025a1.469 1.469 0 0 1 .813 1.129 12.88 12.88 0 0 0 .46 1.625h-1.094a7.534 7.534 0 0 1-.393-1.376c-.167-.76-.444-1.006-1.049-1.02h-.536v2.4h-1.057zm1.057 2.573h.63c.722 0 1.167-.381 1.167-.96 0-.634-.447-.932-1.136-.935a2.952 2.952 0 0 0-.662.054z" transform="translate(-490.28 -80.567)" style="fill:#4d4a94"/>
                <path data-name="Rectangle 13472" transform="translate(141.111 22.426)" style="fill:#4d4a94" d="M0 0h1.066v5.83H0z"/>
                <path data-name="Path 27809" d="m659.241 107.338-.5 1.648h-1.1l1.871-5.831h1.357l1.894 5.831h-1.144l-.528-1.648zm1.676-.805-.459-1.437c-.112-.361-.208-.758-.3-1.1h-.019c-.085.342-.174.745-.277 1.092l-.45 1.44z" transform="translate(-514.674 -80.73)" style="fill:#4d4a94"/>
                <path data-name="Path 27810" d="M684.937 103.156H686v4.937h2.4v.894h-3.463z" transform="translate(-536.034 -80.731)" style="fill:#4d4a94"/>
                <path data-name="Path 27811" d="m493.143 176.063-70.533.058a6.4 6.4 0 0 1-6.4-6.391l-.11-136.343a6.4 6.4 0 0 1 6.391-6.4l70.533-.058a6.4 6.4 0 0 1 6.4 6.391l.112 136.343a6.4 6.4 0 0 1-6.391 6.4" transform="translate(-325.638 -21.073)" style="fill:#302f42"/>
            </g>
        </g>
        <g data-name="Group 41390">
            <g data-name="Group 41389" style="clip-path:url(#0hp97z66et)" transform="translate(96.338 11.946)">
                <path data-name="Rectangle 13474" transform="translate(-.003)" style="fill:url(#mz2qzz4tru)" d="M0 0h71.683v135.538H0z"/>
            </g>
        </g>
        <g data-name="Group 41412">
            <g data-name="Group 41411" style="clip-path:url(#q10a82kjlo)">
                <path data-name="Path 27813" d="M654.008 36.8a1.425 1.425 0 1 1 1.426 1.424 1.425 1.425 0 0 1-1.426-1.424" transform="translate(-511.829 -27.683)" style="fill:#6161ba"/>
                <path data-name="Path 27814" d="m575.383 39.055-14.613.012a1.114 1.114 0 0 1 0-2.228l14.613-.012a1.114 1.114 0 0 1 0 2.228" transform="translate(-437.988 -28.821)" style="fill:#6161ba"/>
                <path data-name="Path 27815" d="M513.46 191.806h-44.324a10.256 10.256 0 0 1-10.256-10.256 10.256 10.256 0 0 1 10.256-10.256h44.324a10.256 10.256 0 0 1 0 20.512" transform="translate(-359.121 -134.055)" style="fill:#00b799"/>
                <g data-name="Group 41395" style="mix-blend-mode:multiply;isolation:isolate">
                    <g data-name="Group 41394">
                        <g data-name="Group 41393" style="clip-path:url(#7gffopo6pv)" transform="translate(99.759 66.575)">
                            <g data-name="Group 41392">
                                <g data-name="Group 41391" style="clip-path:url(#q9aje9mg2w)">
                                    <path data-name="Rectangle 13475" transform="rotate(-60.599 6.815 11.662)" style="fill:url(#82hw655gqx)" d="M0 0h45.459v64.166H0z"/>
                                </g>
                            </g>
                        </g>
                    </g>
                </g>
                <g data-name="Group 41400" style="mix-blend-mode:multiply;isolation:isolate">
                    <g data-name="Group 41399">
                        <g data-name="Group 41398" style="clip-path:url(#zdfpb85nhy)" transform="translate(99.759 88.462)">
                            <g data-name="Group 41397">
                                <g data-name="Group 41396" style="clip-path:url(#eug0chopqz)">
                                    <path data-name="Rectangle 13477" transform="rotate(-60.599 10.803 18.487)" style="fill:url(#344jreagqA)" d="M0 0h53.435v68.66H0z"/>
                                </g>
                            </g>
                        </g>
                    </g>
                </g>
                <g data-name="Group 41405" style="mix-blend-mode:multiply;isolation:isolate">
                    <g data-name="Group 41404">
                        <g data-name="Group 41403" style="clip-path:url(#zdfpb85nhy)" transform="translate(99.759 118.449)">
                            <g data-name="Group 41402">
                                <g data-name="Group 41401" style="clip-path:url(#sb54qut6mB)">
                                    <path data-name="Rectangle 13479" transform="rotate(-60.599 10.803 18.488)" style="fill:url(#gkrwnmt9qC)" d="M0 0h53.435v68.66H0z"/>
                                </g>
                            </g>
                        </g>
                    </g>
                </g>
                <g data-name="Group 41410" style="mix-blend-mode:multiply;isolation:isolate">
                    <g data-name="Group 41409">
                        <g data-name="Group 41408" style="clip-path:url(#0mggkjn5aD)" transform="translate(105.361 20.074)">
                            <g data-name="Group 41407">
                                <g data-name="Group 41406" style="clip-path:url(#j8h5t2ns5E)">
                                    <path data-name="Rectangle 13481" transform="rotate(-60.6 4.57 7.82)" style="fill:url(#bazx3c2ooF)" d="M0 0h35.467v51.874H0z"/>
                                </g>
                            </g>
                        </g>
                    </g>
                </g>
                <path data-name="Path 27820" d="M343.488 353.262a44.013 44.013 0 1 1-44.013-44.013 44.014 44.014 0 0 1 44.013 44.013" transform="translate(-199.925 -242.019)" style="fill:#6d5be1"/>
            </g>
        </g>
        <g data-name="Group 41414">
            <g data-name="Group 41413" style="clip-path:url(#k7h7udgdqG)" transform="translate(60.956 72.65)">
                <path data-name="Rectangle 13484" style="fill:url(#dj5i19e7yH)" d="M0 0h77.187v77.187H0z"/>
            </g>
        </g>
        <g data-name="Group 41425">
            <g data-name="Group 41424" style="clip-path:url(#q10a82kjlo)">
                <path data-name="Path 27822" d="M450.125 495.584a1.649 1.649 0 1 1-1.649-1.649 1.649 1.649 0 0 1 1.649 1.649" transform="translate(-349.687 -386.555)" style="fill:#6d5be1"/>
                <path data-name="Path 27823" d="M447.6 496.607a1.891 1.891 0 1 1 1.891-1.891 1.893 1.893 0 0 1-1.891 1.891m0-3.3a1.408 1.408 0 1 0 1.408 1.408 1.41 1.41 0 0 0-1.408-1.408" transform="translate(-348.817 -385.686)" style="fill:#6d5be1"/>
                <path data-name="Path 27824" d="M467.868 426.817c.654.178-4.688 8.16-7.553 11.112a27.208 27.208 0 0 1-4.663 4.045l-1.24-.572a37.57 37.57 0 0 1 3.2-5.46c2.992-3.788 9.3-9.384 10.253-9.124" transform="translate(-355.624 -334.022)" style="fill:#6d5be1"/>
                <path data-name="Path 27825" d="m454.5 441.377-1.579-.729.106-.221a37.214 37.214 0 0 1 3.23-5.505 53.218 53.218 0 0 1 5.92-6.111 34.434 34.434 0 0 1 2.8-2.277c1.18-.837 1.575-.877 1.787-.819a.309.309 0 0 1 .219.224c.035.126.1.361-.74 1.82a50.984 50.984 0 0 1-1.987 3.117 55.263 55.263 0 0 1-4.935 6.352 27.194 27.194 0 0 1-4.711 4.083zm-.93-.961.9.413a29.235 29.235 0 0 0 4.509-3.938 54.476 54.476 0 0 0 4.81-6.182 26.482 26.482 0 0 0 2.7-4.5 17.252 17.252 0 0 0-4.02 3 52.741 52.741 0 0 0-5.824 6.016 35.625 35.625 0 0 0-3.066 5.195" transform="translate(-354.459 -333.151)" style="fill:#6d5be1"/>
                <path data-name="Path 27826" d="m469.691 530.293-13.9-24.62-1.379.747z" transform="translate(-355.625 -395.741)" style="fill:#6d5be1"/>
                <path data-name="Path 27827" d="m468.252 529.252-15.419-24.092 1.815-.984L468.665 529zm-14.732-23.915 10.437 16.308-9.5-16.818z" transform="translate(-354.389 -394.57)" style="fill:#6d5be1"/>
                <path data-name="Path 27828" d="M453.911 334.323c-.031.318-.108.636-.121.953s-.013.636-.02.953l-.041 1.966c-.013.635 0 1.271 0 1.906q0 .477.005.953a3.03 3.03 0 0 0 .186 1 .411.411 0 0 0 .786 0 2.878 2.878 0 0 0 .186-.942q0-.476.005-.953c0-.655.018-1.311 0-1.966l-.04-1.906-.02-.953c-.007-.338-.089-.674-.122-1.013a.408.408 0 0 0-.815 0" transform="translate(-355.086 -261.335)" style="fill:#6d5be1"/>
                <path data-name="Path 27829" d="M458.037 666.656c-.067.591-.178 1.184-.209 1.776-.029.552-.061 1.107-.047 1.659s.04 1.105.075 1.657a2.447 2.447 0 0 0 .462 1.634.31.31 0 0 0 .48-.062 2.483 2.483 0 0 0 .2-1.572q-.048-.858-.063-1.717c-.02-1.128-.14-2.249-.149-3.376a.374.374 0 0 0-.747 0" transform="translate(-358.258 -521.446)" style="fill:#6d5be1"/>
                <path data-name="Path 27830" d="M267.6 501.459c1.344-.1 2.692-.158 4.039-.218.654-.029 1.309-.04 1.964-.06.337-.01.677 0 1.012-.033a1.857 1.857 0 0 0 1-.244.343.343 0 0 0 .069-.533.992.992 0 0 0-.407-.241c-.149-.035-.309-.044-.461-.065a10.1 10.1 0 0 0-1.038-.071 42.545 42.545 0 0 0-6.183.276.612.612 0 0 0-.594.594.6.6 0 0 0 .594.594" transform="translate(-208.957 -391.284)" style="fill:#6d5be1"/>
                <path data-name="Path 27831" d="M596.37 493.264c.973.093 1.946.14 2.923.189.478.024.953.02 1.431.016l.716-.007a1.331 1.331 0 0 0 .7-.1.318.318 0 0 0 0-.542 1.255 1.255 0 0 0-.636-.144l-.716-.068c-.5-.047-.992-.093-1.491-.111-.975-.035-1.947-.07-2.923-.06a.416.416 0 0 0 0 .832" transform="translate(-466.408 -385.377)" style="fill:#6d5be1"/>
                <path data-name="Path 27832" d="M357.492 366.33a6.376 6.376 0 0 1 .717 1.223 4.606 4.606 0 0 1 .23.641.7.7 0 0 0 .459.575.422.422 0 0 0 .421-.111c.39-.432 0-1.122-.217-1.569a5.137 5.137 0 0 0-.917-1.294c-.335-.357-1 .128-.693.535" transform="translate(-279.712 -286.176)" style="fill:#6d5be1"/>
                <path data-name="Path 27833" d="M300.58 429.534c.492.315.941.673 1.4 1.028.228.175.454.35.672.538a1.035 1.035 0 0 0 .722.357.32.32 0 0 0 .314-.314.964.964 0 0 0-.443-.712c-.237-.2-.48-.389-.73-.568a9.155 9.155 0 0 0-1.62-.871.314.314 0 0 0-.317.542" transform="translate(-235.114 -335.705)" style="fill:#6d5be1"/>
                <path data-name="Path 27834" d="M530.455 356.865c-.145.1-.3.183-.443.281a3.724 3.724 0 0 0-.4.369 18.7 18.7 0 0 0-.8.817 9.457 9.457 0 0 0-.68.854 1.951 1.951 0 0 0-.422.907c-.02.159.162.246.29.221a1.959 1.959 0 0 0 .853-.5 9.178 9.178 0 0 0 .792-.737c.233-.251.463-.5.679-.765.115-.14.231-.279.344-.421a4.387 4.387 0 0 0 .3-.518c.181-.307-.195-.73-.511-.511" transform="translate(-412.988 -279.236)" style="fill:#6d5be1"/>
                <path data-name="Path 27835" d="M594.446 417.047a4.116 4.116 0 0 0-1.386.789 2.4 2.4 0 0 0-1.047 1.1.31.31 0 0 0 .295.387 2.479 2.479 0 0 0 1.4-.608 4.072 4.072 0 0 0 1.223-1.033.438.438 0 0 0-.489-.636" transform="translate(-463.301 -326.376)" style="fill:#6d5be1"/>
                <path data-name="Path 27836" d="m300.527 581.708 1.093-.87c.305-.243.826-.572.915-.97a.36.36 0 0 0-.344-.451c-.432.019-.853.47-1.166.745l-1.087.959c-.409.36.179.914.588.588" transform="translate(-234.625 -453.452)" style="fill:#6d5be1"/>
                <path data-name="Path 27837" d="M362.374 643.749a4.758 4.758 0 0 1 .705-1.177 12.219 12.219 0 0 1 1-.959.41.41 0 0 0-.494-.641 4.094 4.094 0 0 0-1.189 1.136 5.885 5.885 0 0 0-.8 1.427.4.4 0 0 0 .279.491.409.409 0 0 0 .491-.279" transform="translate(-282.977 -501.588)" style="fill:#6d5be1"/>
                <path data-name="Path 27838" d="M606.32 572.453a13.409 13.409 0 0 1-1.566-.67 5.557 5.557 0 0 1-.718-.436c-.272-.195-.493-.464-.861-.344a.453.453 0 0 0-.32.32c-.065.462.212.65.56.891a5.591 5.591 0 0 0 .859.488 3.933 3.933 0 0 0 1.963.366.316.316 0 0 0 .083-.617" transform="translate(-471.789 -446.846)" style="fill:#6d5be1"/>
                <path data-name="Path 27839" d="M544.362 646.3a5.018 5.018 0 0 0-.575-1.54l-.338-.77a2.983 2.983 0 0 0-.454-.708c-.177-.218-.464.027-.426.248a5.99 5.99 0 0 0 .59 1.528 4.946 4.946 0 0 0 .768 1.423.257.257 0 0 0 .435-.18" transform="translate(-424.615 -503.368)" style="fill:#6d5be1"/>
                <path data-name="Path 27840" d="M16.867 681.068A42.508 42.508 0 0 1 16 686.1c-.769.954-1.63-.72-2.452-3.632-.546-1.936-1.17-2.123.775-3.159 2.274-1.212 2.54 1.757 2.54 1.757" transform="translate(-10.178 -531.404)" style="fill:#73779f"/>
                <path data-name="Path 27841" d="M18.12 679.573s-.716 5.342-1.135 5.36c-1 .043-1.358-1.045-2.18-3.957-.546-1.936-1.17-2.124.774-3.159 2.274-1.212 2.54 1.757 2.54 1.757" transform="translate(-11.159 -530.234)" style="fill:#46485f"/>
                <path data-name="Path 27842" d="M43.7 385.123s-7.31-2.584-7.847 13.876c-.5 15.32-1.9 25.141-1.9 25.141a64.793 64.793 0 0 0-7.273 12.589c-2.93 7.4-3.758 10.306-3.928 11.224-.165.891 1.762 3.9 2.014 3.526 2.778-2.653 16.456-11.532 23.438-19.469 1.919-2.182 7.454-13.395 13.143-22.052 6.726-10.236 4.772-16.523 4.772-16.523z" transform="translate(-17.795 -301.283)" style="fill:#3a395f"/>
                <path data-name="Path 27843" d="M165.178 699.133a42.463 42.463 0 0 1 4.106 3.038c.5 1.116-1.378 1.131-4.348.553-1.974-.385-2.423.088-2.472-2.115-.057-2.576 2.713-1.476 2.713-1.476" transform="translate(-127.145 -546.961)" style="fill:#73779f"/>
                <path data-name="Path 27844" d="M164.409 697.341s4.447 3.046 4.274 3.428c-.414.914-1.545.741-4.515.163-1.974-.385-2.423.088-2.472-2.115-.057-2.576 2.713-1.476 2.713-1.476" transform="translate(-126.543 -545.558)" style="fill:#46485f"/>
                <g data-name="Group 41417" style="opacity:.2">
                    <g data-name="Group 41416">
                        <g data-name="Group 41415" style="clip-path:url(#g6s7ldgwrI)" transform="translate(24.303 110.452)">
                            <path data-name="Path 27845" d="M4.918 13.443s0 1.421.219 3.661a8.772 8.772 0 0 0 .965 3.169c1.057-1.384 2.368-2.783 2.368-7.286C8.47 6.138 0 0 0 0z"/>
                        </g>
                    </g>
                </g>
                <path data-name="Path 27846" d="M85.418 385.956a17.864 17.864 0 0 0-1.735 13.609c1.9 7.23 13.443 27.126 13.443 27.126s-1.011 2.561-.328 10.164a140.218 140.218 0 0 0 3.12 16.861c1.47 1.073 4.239-.354 4.239-.354s4.5-9.555 7.643-18.121a52.238 52.238 0 0 0 2.572-15.605c-.224-12.713-1.737-18.2-.573-31.3l-.44-3.177z" transform="translate(-65.008 -301.424)" style="fill:#3a395f"/>
                <path data-name="Path 27847" d="M189.835 263.758c-.027-4.607 15.5-10.328 16.036-6.859.438 2.84-5.656 13.774-4.348 21.479.383 2.256 6.609 8.053 9.019 8.185 2.841.155.99 2.2.526 2.6-5.634 4.823-17.045.127-18.259-2.011-4.237-7.462-2.946-18.785-2.973-23.391" transform="translate(-148.437 -200.216)" style="fill:#12365b"/>
                <path data-name="Path 27848" d="M287.767 388.338c-.158-.472.459-1.546.776-2.122a4.886 4.886 0 0 1 1.823-1.777c.763-.272-.015 1.392-.072 1.751-.062.392-.207 1.009-.265 1.459a14.759 14.759 0 0 1-1.5 1.368c-.4.235-.6-.207-.757-.678" transform="translate(-225.187 -300.839)" style="fill:#dca57e"/>
                <g data-name="Group 41420" style="opacity:.2">
                    <g data-name="Group 41419">
                        <g data-name="Group 41418" style="clip-path:url(#xjhrmiyd7J)" transform="translate(49.869 75.087)">
                            <path data-name="Path 27849" d="M.023 15.552C1.311 12.007 2.774 8.365 4.17 4.926 3.159 3.238 3.057 3.357 2.958.836 2.837-2.219 1.635 3.228.001 14.974z"/>
                        </g>
                    </g>
                </g>
                <path data-name="Path 27850" d="M122.36 248.618c3.362 2.052.065 12.8-3.789 22.569a75.5 75.5 0 0 0-4.787 22.684s-7.391 2.42-20.7-5.65c-9.726-5.9-10.019-7.519-10.019-7.519s10.865-13.506 19.391-21.264c12.391-11.274 17.861-12.066 19.9-10.821" transform="translate(-65.008 -194.227)" style="fill:#12365b"/>
                <path data-name="Path 27851" d="M268.231 190.64c-.182 4.794-.771 9.041-3.027 10.205-1.122.579-4.1-.136-4.1-.136a6.575 6.575 0 0 0-1.648 1.165c-1.274 1.219-1.86 1.212-2.525.139-1.186-1.913-1.525-1.8-.394-3.451.224-.328-1.114-2.453-.975-5.153.257-4.98 2.45-7.941 7.4-7.577a5.246 5.246 0 0 1 5.266 4.808" transform="translate(-199.994 -145.409)" style="fill:#dca57e"/>
                <path data-name="Path 27852" d="M310.672 223.687a6.9 6.9 0 0 1 .826 3.2c.014.516-1.408.18-1.408.18z" transform="translate(-242.677 -175.058)" style="fill:#d59a6a"/>
                <path data-name="Path 27853" d="M279.674 225.522c-.346.654.633.659.113 1.124s-1.174-.914-.776-1.573 1.18-.582 1.226-.123-.562.572-.562.572" transform="translate(-218.259 -175.766)" style="fill:#d59a6a"/>
                <path data-name="Path 27854" d="M302.269 219.391c-.087.354-.842-.308-1.74.093-1.181.528-1.138.179-.291-.3 1.308-.743 2.137-.224 2.031.209" transform="translate(-234.484 -171.239)" style="fill:#655147"/>
                <path data-name="Path 27855" d="M271.816 247.251c.707 1.378.934 1.378.934 1.378a3.325 3.325 0 0 1 .358-.241c.172-.1.281-.174.362-.218a.327.327 0 0 0 .1-.075 1.941 1.941 0 0 1-1.444-1.01c-.69-1.1-.837-.853-.315.166" transform="translate(-212.478 -192.806)" style="fill:#d59a6a"/>
                <path data-name="Path 27856" d="M254.765 187.689c1-.262 1.281-.18 1.166.928s-.01 1.178.363 1.088.375-1.344.572-2.284 1.317-.516 1.727-2.283c.27-1.161 1.945-1.046 3.29-1.183 1.1-.112 1.4-1.839-.051-3.562s-4.645-3.468-10.017-2.051c-2.856.753-2.876 3.9-3.094 4.015-2.472 1.283-.4 5.313-.06 6.1a25.4 25.4 0 0 1 1.4 3.585s.3.615 1.217.34c1.19-.356 3.284-1.165 3.047-1.774-.194-.5-.6-2.646.441-2.92" transform="translate(-193.716 -139.165)" style="fill:#655147"/>
                <path data-name="Path 27857" d="M305.583 225.9c.335-.023.323.909.043.96s-.424-.933-.043-.96" transform="translate(-238.969 -176.79)" style="fill:#45423f"/>
                <path data-name="Path 27858" d="M302.646 242.56a5.352 5.352 0 0 1-1.125-.192 1.439 1.439 0 0 1-.575-.318 3.187 3.187 0 0 0 .9.812c.427.193.552.251.552.251a4.426 4.426 0 0 0 .249-.553" transform="translate(-235.521 -189.429)" style="fill:#fff"/>
                <path data-name="Path 27859" d="M373.76 318.49c.7-.072.392.227-.376.7-.245.149 1.648-.325 2.706-.254.379.025-1.644 1.148-2.1 1.336-.175.073-1.227.855-1.555 1.043-.372-.476-.913-.707-.518-1.517a2.339 2.339 0 0 1 1.839-1.3" transform="translate(-290.958 -249.243)" style="fill:#dca57e"/>
                <path data-name="Path 27860" d="M231.438 262.666c-3.492-6.328-10.585 2.1-10.063 9.792.319 4.7 9.568 13 13.9 14.465 3.332 1.13 16.436-7.793 19.265-9.807 1.662-1.183.35-1.968-1.5-3.171-2.123-1.377-11.972 2.724-13.327 1a71.3 71.3 0 0 1-8.273-12.283" transform="translate(-173.227 -203.824)" style="fill:#12365b"/>
                <g data-name="Group 41423" style="opacity:.2">
                    <g data-name="Group 41422">
                        <g data-name="Group 41421" style="clip-path:url(#0a5tdm230K)" transform="translate(50.586 74.07)">
                            <path data-name="Path 27861" d="m0 0 2.005 5.535.866-2.377z"/>
                        </g>
                    </g>
                </g>
                <path data-name="Path 27862" d="M821.13 700.193c0 .8-.255 2.348-1.014 2.4-3.343.24-8.614.055-7.209-1.153 1.18-1.015 5.094-2.274 5.094-2.274z" transform="translate(-636.001 -547.171)" style="fill:#8282b4"/>
                <path data-name="Path 27863" d="M822.09 698.056c0 .8-.255 2.348-1.014 2.4-3.343.24-8.587-.031-7.262-.848s5.146-2.579 5.146-2.579z" transform="translate(-636.729 -545.499)" style="fill:#66668a"/>
                <path data-name="Path 27864" d="M842.194 435.793s-4.6 21.716-7.358 29.792-5.131 26.5-5.131 26.5 0 1.457 2.338 2.019a6.831 6.831 0 0 0 2.869 0s9.628-8.1 12.1-11.542c3.685-5.132 3.579-9.547 3.579-9.547s12.291-10.893 19.411-21.2 7.159-11.581 7.159-11.581z" transform="translate(-649.33 -341.053)" style="fill:#3a395f"/>
                <path data-name="Path 27865" d="m919.719 517.632-4.381-22.343s.638 12.935 1.464 17.272a44.076 44.076 0 0 0 1.563 6.324z" transform="translate(-716.346 -387.615)" style="fill:#2f2b70"/>
                <path data-name="Path 27866" d="m1091.911 687.138-.316-.411-1.389-5.385 1.59-3.5a1.771 1.771 0 0 1 1.771 1.652c.291 2.286-.984 7.523-1.656 7.646" transform="translate(-853.199 -530.48)" style="fill:#8282b4"/>
                <path data-name="Path 27867" d="m1089.736 684.311-1.9-6.056 1.59-3.5a1.772 1.772 0 0 1 1.771 1.652c.291 2.286-.784 7.783-1.456 7.906" transform="translate(-851.34 -528.064)" style="fill:#66668a"/>
                <path data-name="Path 27868" d="M909.327 434.951s2.654 31.638 7.755 38.227 30.677 16.739 30.677 16.739 1.913-1.169 2.338-2.338a10.822 10.822 0 0 0 .531-2.444s-3.51-6.784-6.546-10.267c-4.681-5.369-8.205-6.333-8.205-6.333s7.409-24.248 5.391-31.261-31.94-2.323-31.94-2.323" transform="translate(-711.642 -339.192)" style="fill:#3a395f"/>
                <path data-name="Path 27869" d="M858.555 218.36s-1.512-2.124-2.079-3a2.154 2.154 0 0 1 .212-2.445c.355-.124 1.617.98 2.795 1.645s.382 2.8.382 2.8z" transform="translate(-670.064 -166.619)" style="fill:#8e7458"/>
            </g>
        </g>
        <g data-name="Group 41427">
            <g data-name="Group 41426" style="clip-path:url(#dvns2ujq4L)" transform="translate(187.551 49.77)">
                <path data-name="Rectangle 13489" transform="translate(-.086)" style="fill:url(#9gt3mg9awc)" d="M0 0h36.512v23.679H0z"/>
            </g>
        </g>
        <g data-name="Group 41429">
            <g data-name="Group 41428" style="clip-path:url(#q10a82kjlo)">
                <path data-name="Path 27871" d="M926.2 296.737q.193.126.384.241a7.574 7.574 0 0 0 1.856.7c.632-1.338 4.809-10.243 3.327-8.724a82.8 82.8 0 0 0-5.567 7.778" transform="translate(-724.85 -226.004)" style="fill:#5164ae"/>
            </g>
        </g>
        <g data-name="Group 41431">
            <g data-name="Group 41430" style="clip-path:url(#rkyf5sc6fM)" transform="translate(192.864 57.018)">
                <path data-name="Rectangle 13491" transform="rotate(-68.072 20.003 29.614)" style="fill:url(#nhdzq8qt3N)" d="M0 0h53.85v50.496H0z"/>
            </g>
        </g>
        <g data-name="Group 41433">
            <g data-name="Group 41432" style="clip-path:url(#q10a82kjlo)">
                <path data-name="Path 27873" d="M964.9 199.331c-4.035-1.089-6.057 4.173-6.73 6.6s-.808 4.846 1.481 5.519l2.288.673s-1.077 3.231 0 3.5 3.079.14 3.348-.8 8.094-13.2-.386-15.485" transform="translate(-749.529 -155.882)" style="fill:#8e7458"/>
                <path data-name="Path 27874" d="M963.421 202.96a3.062 3.062 0 0 1-.356-1.693c.142-.78.48-1.3-.148-1.934s-1.482-1.334-1.115-2.114.532-1.539-.248-1.4-1.7-1.305-2.057-.733c-.409.662-.964.727-1.183 1.205s-.872 2.224-.872 2.224.174-.9-.276-1.113-.881-1.584-.339-1.8-.025-1.206.4-1.773 1.064-.5 1.348-.851.39-1.22.836-1.395c1.248-.486 1.287.512 1.926-.2s1.546-1.234 2.467-.6a3.58 3.58 0 0 0 2.543.561c1.064 0 1.205 1.729 1.489 1.893s1.376-.5 1.943.709-.1 1.653.326 2.149 1.276 1.56.993 2.269a3.594 3.594 0 0 0-.233 2.419c.284.709.28 1.95-.642 2.162s-2.042 0-1.924.923c.245 1.927-1.793.79-2.385 1.765-.351.578-1.331-.038-1.615-.709s-.242-1.829-.878-1.98" transform="translate(-748.617 -149.093)" style="fill:#473a2d"/>
                <path data-name="Path 27875" d="M976.04 257.278a2.332 2.332 0 0 0 1.3-.218c.768-.331 1.052-.141 1.1.237s-2.677 1.01-2.677 1.01z" transform="translate(-763.631 -201.042)" style="fill:#836a52"/>
                <path data-name="Path 27876" d="M962.2 227.347c.284.1-.106 2.125-.425 2.125s-.886-.177-.886-.425a10.112 10.112 0 0 1 1.312-1.7" transform="translate(-751.994 -177.923)" style="fill:#836a52"/>
                <path data-name="Path 27877" d="M959.834 241.7s-.736-.106-1.233-.213a4.2 4.2 0 0 1-.862-.283s.224.638.685.745a3.546 3.546 0 0 0 1.41-.248" transform="translate(-749.53 -188.764)" style="fill:#fff"/>
                <path data-name="Path 27878" d="M973.372 224.063a.338.338 0 0 0 0 .443c.124.124.5.089.886.532s.62.638.727.585-.02-.647-.5-1.081c-.425-.388-.9-.638-1.117-.479" transform="translate(-761.699 -175.314)" style="fill:#473a2d"/>
                <path data-name="Path 27879" d="M962.677 220.387c.057.123-.036.444-.195.452a1.779 1.779 0 0 0-.532 0 1.379 1.379 0 0 0-.362.219 1.544 1.544 0 0 1 .209-.633c.186-.216.773-.269.88-.038" transform="translate(-752.542 -172.358)" style="fill:#473a2d"/>
                <path data-name="Path 27880" d="M971.848 231.111c-.164-.126-.589.505-.394.647s.7-.415.394-.647" transform="translate(-760.224 -180.855)" style="fill:#473a2d"/>
                <path data-name="Path 27881" d="M961.332 227.955c-.164-.126-.589.505-.394.647s.695-.415.394-.647" transform="translate(-751.994 -178.385)" style="fill:#473a2d"/>
                <path data-name="Path 27882" d="M1114.346 132.01s-.291-.18.575-1.584 1.084-2.11 1.344-1.82-.157 1.253-.157 1.253 1.637-1.878 1.587-2.383a6.178 6.178 0 0 0 .487 1.861c.392.546-.143 1.415-.6 2.123a8.113 8.113 0 0 1-.763 1.034s-2.628.883-2.47-.484" transform="translate(-872.054 -99.695)" style="fill:#8e7458"/>
            </g>
        </g>
        <g data-name="Group 41435">
            <g data-name="Group 41434" style="clip-path:url(#23qb6kg1eO)" transform="translate(211.917 32.01)">
                <path data-name="Rectangle 13493" transform="rotate(-68.072 18.661 33.612)" style="fill:url(#2xtrmyjepP)" d="M0 0h55.762v52.417H0z"/>
            </g>
        </g>
        <g data-name="Group 41437">
            <g data-name="Group 41436" style="clip-path:url(#q10a82kjlo)">
                <path data-name="Path 27884" d="M1006.8 300.77a16.379 16.379 0 0 1-1.832-.881c-4.383-2.427-5.26-9.773-5.26-9.773a38.083 38.083 0 0 0 2.343 5.293 8.294 8.294 0 0 0 4.214 3.825l.087.244q.223.629.449 1.291" transform="translate(-782.377 -227.046)" style="fill:#5164ae"/>
                <path data-name="Path 27885" d="M841.3 200.12a15.219 15.219 0 0 1-3.4 8.126c-.3.347-2.547 2.927-3.232 3.034h-.011a.182.182 0 0 1-.092-.009l-.014-.006a54.223 54.223 0 0 1-3.182-1.872.835.835 0 0 1 .117-1.468 7.9 7.9 0 0 0 1.554-.885c2.5-1.835 5.077-4.593 5.814-7.727l.352.155 1.4.778.045-.081.171-.309z" transform="translate(-650.337 -155.985)" style="fill:#7b6cdd"/>
            </g>
        </g>
        <g data-name="Group 41439">
            <g data-name="Group 41438" style="clip-path:url(#cqpfr6bs7Q)" transform="translate(172.244 23.901)">
                <path data-name="Rectangle 13495" transform="rotate(-58.8 8.596 15.246)" style="fill:url(#5bdter51wd)" d="M0 0h27.685v27.757H0z"/>
            </g>
        </g>
        <g data-name="Group 41441">
            <g data-name="Group 41440" style="clip-path:url(#q10a82kjlo)">
                <path data-name="Path 27887" d="M792.729 115.664a38.302 38.302 0 0 0-1.646 3.321c-.107.243-.208.484-.3.72-1.24 3.053-1.615 5.413-.788 5.872.8.446 2.534-1.022 4.408-3.557.088-.118.177-.24.264-.362.1-.144.208-.293.313-.444l.034-.049a39.16 39.16 0 0 0 1.946-3.154c.56-1.009 1.057-2 1.481-2.944l.056-.127a24.016 24.016 0 0 0 .4-.934c1.252-3.071 1.633-5.448.8-5.909-.852-.473-2.749 1.211-4.753 4.038q-.246.348-.5.718c-.576.858-1.155 1.8-1.715 2.813" transform="translate(-617.904 -84.533)" style="fill:#394588"/>
                <path data-name="Path 27888" d="M805.9 141.635a4.588 4.588 0 0 0 .194.646 3.8 3.8 0 0 0 .212.454 4.108 4.108 0 0 0 1.079 1.284c.1-.144.208-.293.313-.444l.034-.049a39.16 39.16 0 0 0 1.946-3.154c.56-1.009 1.057-2 1.481-2.944l.056-.127c.068-.151.135-.3.2-.452a4.17 4.17 0 0 0-2.319-.164c-.049.01-.1.022-.144.035a4.168 4.168 0 0 0-3.049 4.918" transform="translate(-630.624 -106.895)" style="fill:#e3d8f5"/>
            </g>
        </g>
        <g data-name="Group 41443">
            <g data-name="Group 41442" style="clip-path:url(#ogz9j0l4yR)" transform="translate(188.033 37.926)">
                <path data-name="Rectangle 13497" transform="rotate(-58.8 3.192 5.66)" style="fill:url(#rwszzqczaS)" d="M0 0h10.958v11.428H0z"/>
            </g>
        </g>
        <g data-name="Group 41445">
            <g data-name="Group 41444" style="clip-path:url(#hrypo5uc2T)" transform="translate(188.74 37.104)">
                <path data-name="Rectangle 13498" transform="translate(-.018)" style="fill:url(#bwgcbm1dxe)" d="M0 0h5.189v7.394H0z"/>
            </g>
        </g>
        <g data-name="Group 41452">
            <g data-name="Group 41451" style="clip-path:url(#q10a82kjlo)">
                <g data-name="Group 41450" style="mix-blend-mode:multiply;isolation:isolate">
                    <g data-name="Group 41449">
                        <g data-name="Group 41448" style="clip-path:url(#emja7q87fU)" transform="translate(188.74 37.104)">
                            <g data-name="Group 41447">
                                <g data-name="Group 41446" style="clip-path:url(#wceambnh1V)">
                                    <path data-name="Rectangle 13499" transform="translate(-.018 -.018)" style="fill:url(#l1c0myqm3W)" d="M0 0h5.189v7.411H0z"/>
                                </g>
                            </g>
                        </g>
                    </g>
                </g>
                <path data-name="Path 27892" d="M857.09 213.414s.957.463.461 1.095-1.356.652-1.35.334a2.667 2.667 0 0 1 .457-.945z" transform="translate(-670.065 -167.018)" style="fill:#8e7458"/>
            </g>
        </g>
        <text data-name="Join Now" transform="translate(109.568 50.49)" style="font-size:10px;font-family:SFProDisplay-Semibold,SF Pro Display;font-weight:600;fill:#fff"><tspan x="0" y="0">Join N</tspan><tspan y="0" style="letter-spacing:-.002em">o</tspan><tspan y="0">w</tspan></text>
    </g>
</svg>
