<svg xmlns="http://www.w3.org/2000/svg" width="18" height="16.433" viewBox="0 0 18 16.433">
    <path data-name="Path 23894" d="m92.541 44.638 1.119 1.119a1.942 1.942 0 0 1-1.94 1.828h-6.659l-2.2 2.22a.666.666 0 0 1-.5.224.728.728 0 0 1-.727-.727v-1.735a1.958 1.958 0 0 1-1.548-1.9V39.77a1.938 1.938 0 0 1 1.94-1.94H83.2v1.362h-1.179a.585.585 0 0 0-.6.578v5.876a.6.6 0 0 0 .6.6h.97v1.529l1.53-1.53h7.219a.6.6 0 0 0 .6-.6v-1.007zm5.54-9.1v5.876a1.958 1.958 0 0 1-1.548 1.9v1.735a.831.831 0 0 1-.224.541.891.891 0 0 1-.522.187.736.736 0 0 1-.522-.224l-2.183-2.183h-6.659a1.938 1.938 0 0 1-1.94-1.94v-5.894a1.938 1.938 0 0 1 1.94-1.94h9.7a1.931 1.931 0 0 1 1.959 1.94zm-6.3 5.167a.3.3 0 0 0-.3-.3h-.783a.3.3 0 0 0-.3.3v.5a.3.3 0 0 0 .3.3h.783a.3.3 0 0 0 .3-.3zm1.548-3.451a1.719 1.719 0 0 0-.56-1.343 2.242 2.242 0 0 0-1.548-.5 2.384 2.384 0 0 0-1.474.429 1.425 1.425 0 0 0-.541 1.082.192.192 0 0 0 .187.205l.877.019a.325.325 0 0 0 .317-.224.7.7 0 0 1 .168-.28.682.682 0 0 1 .466-.168.673.673 0 0 1 .522.205.753.753 0 0 1 .187.56 1.11 1.11 0 0 1-.168.6 1.346 1.346 0 0 1-.429.429 3.031 3.031 0 0 0-.746.672 1.164 1.164 0 0 0-.187.634.206.206 0 0 0 .224.224h.951a.221.221 0 0 0 .225-.198.892.892 0 0 1 .093-.354.948.948 0 0 1 .354-.373 2.279 2.279 0 0 0 .783-.672 1.64 1.64 0 0 0 .3-.951z" transform="translate(-80.081 -33.596)" style="fill:#6149cd"/>
</svg>
