<svg xmlns="http://www.w3.org/2000/svg" width="73.501" height="28" viewBox="0 0 73.501 28">
    <defs>
        <clipPath id="d22yf0ow7b">
            <path data-name="Rectangle 13540" style="fill:none" d="M0 0h20.369v20.495H0z"/>
        </clipPath>
        <clipPath id="ohrg8jjc3c">
            <path data-name="Path 27969" d="M9.044.56a2.666 2.666 0 0 1-2.685.724 1.449 1.449 0 0 0-1.977 1.148A2.686 2.686 0 0 1 2.416 4.41 1.459 1.459 0 0 0 1.275 6.4a2.705 2.705 0 0 1-.719 2.7 1.464 1.464 0 0 0 0 2.3 2.7 2.7 0 0 1 .719 2.7 1.459 1.459 0 0 0 1.141 1.989 2.686 2.686 0 0 1 1.966 1.978 1.449 1.449 0 0 0 1.976 1.148 2.666 2.666 0 0 1 2.685.724 1.444 1.444 0 0 0 2.282 0 2.666 2.666 0 0 1 2.685-.724 1.449 1.449 0 0 0 1.977-1.148 2.686 2.686 0 0 1 1.966-1.978 1.459 1.459 0 0 0 1.141-1.989 2.705 2.705 0 0 1 .719-2.7 1.464 1.464 0 0 0 0-2.3 2.705 2.705 0 0 1-.719-2.7 1.459 1.459 0 0 0-1.141-1.99 2.686 2.686 0 0 1-1.966-1.978 1.449 1.449 0 0 0-1.977-1.148A2.666 2.666 0 0 1 11.326.56 1.657 1.657 0 0 0 10.185 0a1.657 1.657 0 0 0-1.141.56" transform="translate(0 -.001)" style="fill:none"/>
        </clipPath>
        <clipPath id="5yfb6q2bje">
            <path data-name="Rectangle 13532" style="fill:none" d="M0 0h15.363v7.826H0z"/>
        </clipPath>
        <clipPath id="jrfmp9gsif">
            <path data-name="Path 27971" d="M56.045 63.077a6.607 6.607 0 1 1 6.607 6.648 6.635 6.635 0 0 1-6.607-6.648m3.617-7.121a7.659 7.659 0 1 0 2.99-.608 7.652 7.652 0 0 0-2.99.608" transform="translate(-54.971 -55.348)" style="fill:none"/>
        </clipPath>
        <clipPath id="mhpj4s2uzh">
            <path data-name="Rectangle 13535" style="fill:none" d="M0 0h13.214v6.745H0z"/>
        </clipPath>
        <linearGradient id="99ghafp3aa" x1=".155" y1="-.069" x2=".953" y2="1" gradientUnits="objectBoundingBox">
            <stop offset="0" stop-color="#ffc400"/>
            <stop offset="1" stop-color="#ffa700"/>
        </linearGradient>
        <linearGradient id="9e16g6uj1d" x1=".155" y1="-.069" x2=".953" y2="1" gradientUnits="objectBoundingBox">
            <stop offset="0" stop-color="#ffc400"/>
            <stop offset="1" stop-color="#ff7f00"/>
        </linearGradient>
        <linearGradient id="ul2irji3lg" x1="-.162" y1="1.163" x2="-.159" y2="1.163" gradientUnits="objectBoundingBox">
            <stop offset="0" stop-color="#ffc429"/>
            <stop offset="1" stop-color="#ffa200"/>
        </linearGradient>
    </defs>
    <g data-name="Group 41369">
        <g data-name="Group 41363">
            <g data-name="Group 41349" transform="translate(-5.392 1)">
                <rect data-name="Rectangle 13530" width="57" height="14" rx="2" transform="translate(21.393 6)" style="fill:url(#99ghafp3aa);stroke:transparent;stroke-miterlimit:10"/>
            </g>
            <g data-name="Group 41278">
                <path data-name="Path 28093" d="M.649 10h1.094V7.593h1.528a2.22 2.22 0 0 0 2.339-2.32v-.01a2.209 2.209 0 0 0-2.339-2.31H.649zM3 3.877a1.321 1.321 0 0 1 1.5 1.392v.01A1.322 1.322 0 0 1 3 6.675H1.743v-2.8zM6.54 10H7.6V6.938a1.065 1.065 0 0 1 1.1-1.211 1.51 1.51 0 0 1 .474.059V4.8a2.039 2.039 0 0 0-.374-.034 1.209 1.209 0 0 0-1.182.977H7.6v-.88H6.54zm5.354.1a2.1 2.1 0 0 0 2.2-1.558l.01-.054h-1l-.015.039a1.165 1.165 0 0 1-1.172.708c-.84 0-1.372-.566-1.392-1.538h3.638v-.353a2.3 2.3 0 0 0-2.324-2.578 2.388 2.388 0 0 0-2.367 2.68 2.359 2.359 0 0 0 2.422 2.654zm-.048-4.47c.688 0 1.187.435 1.274 1.323h-2.578a1.31 1.31 0 0 1 1.304-1.323zM15.08 10h1.055V6.826A1.08 1.08 0 0 1 17.2 5.669a.909.909 0 0 1 .972.977V10h1.035V6.787a1.047 1.047 0 0 1 1.06-1.118.928.928 0 0 1 .981 1.055V10h1.06V6.47a1.59 1.59 0 0 0-1.68-1.7 1.68 1.68 0 0 0-1.6 1.011h-.024a1.405 1.405 0 0 0-1.431-1.011 1.47 1.47 0 0 0-1.416.894h-.024v-.8H15.08zM24 4.072a.608.608 0 1 0-.615-.605.608.608 0 0 0 .615.605zM23.471 10h1.055V4.863h-1.055zm3.992.1a1.66 1.66 0 0 0 1.572-.874h.024V10h1.06V4.863H29.06v3a1.2 1.2 0 0 1-1.221 1.333c-.732 0-1.094-.43-1.094-1.206V4.863H25.69v3.33a1.692 1.692 0 0 0 1.773 1.907zm3.8-.1h1.055V6.826a1.08 1.08 0 0 1 1.069-1.157.909.909 0 0 1 .972.977V10h1.031V6.787a1.047 1.047 0 0 1 1.06-1.118.928.928 0 0 1 .981 1.055V10h1.06V6.47a1.59 1.59 0 0 0-1.68-1.7 1.68 1.68 0 0 0-1.6 1.011h-.024a1.405 1.405 0 0 0-1.431-1.011 1.47 1.47 0 0 0-1.416.894h-.024v-.8h-1.057z" transform="translate(29.521 7)" style="fill:#fff"/>
            </g>
            <g data-name="Group 41551" transform="translate(3.301 3.811)">
                <ellipse data-name="Ellipse 2349" cx="13.5" cy="14" rx="13.5" ry="14" transform="translate(-3.301 -3.811)" style="fill:#ffedbc"/>
                <g data-name="Group 41260" style="clip-path:url(#d22yf0ow7b)">
                    <g data-name="Group 41239" style="clip-path:url(#ohrg8jjc3c)">
                        <rect data-name="Rectangle 13531" width="20.739" height="20.681" rx="2" transform="translate(-.185)" style="fill:url(#9e16g6uj1d);stroke:transparent;stroke-miterlimit:10"/>
                    </g>
                    <g data-name="Group 41245">
                        <g data-name="Group 41244" style="clip-path:url(#d22yf0ow7b)">
                            <g data-name="Group 41243" style="mix-blend-mode:overlay;isolation:isolate;opacity:.35">
                                <g data-name="Group 41242">
                                    <g data-name="Group 41241" style="clip-path:url(#5yfb6q2bje)" transform="translate(2.486 10.344)">
                                        <path data-name="Path 27970" d="M69.731 230.227a7.729 7.729 0 0 1-4.087 4.112 7.645 7.645 0 0 1-8.422-1.656 7.727 7.727 0 0 1-2.249-5.368v.1a7.73 7.73 0 0 0 4.691 7.121 7.645 7.645 0 0 0 8.422-1.656 7.732 7.732 0 0 0 2.25-5.465v-.1a7.718 7.718 0 0 1-.6 2.912" transform="translate(-54.972 -227.315)" style="fill:#fff"/>
                                    </g>
                                </g>
                            </g>
                        </g>
                    </g>
                    <g data-name="Group 41247">
                        <g data-name="Group 41246" style="clip-path:url(#jrfmp9gsif)" transform="translate(2.486 2.519)">
                            <path data-name="Rectangle 13534" style="fill:url(#ul2irji3lg)" d="M0 0h15.363v15.458H0z"/>
                        </g>
                    </g>
                    <g data-name="Group 41255">
                        <g data-name="Group 41254" style="clip-path:url(#d22yf0ow7b)">
                            <g data-name="Group 41250" style="opacity:.5;mix-blend-mode:overlay;isolation:isolate">
                                <g data-name="Group 41249">
                                    <g data-name="Group 41248" style="clip-path:url(#mhpj4s2uzh)" transform="translate(3.56 3.6)">
                                        <path data-name="Path 27972" d="M85.333 79.3a6.634 6.634 0 0 1 6.606 6.551v-.1a6.607 6.607 0 1 0-13.214 0v.1a6.634 6.634 0 0 1 6.608-6.551" transform="translate(-78.726 -79.102)" style="fill:#fff"/>
                                    </g>
                                </g>
                            </g>
                            <path data-name="Path 27973" d="M85.333 233.866a6.634 6.634 0 0 1-6.606-6.551v.1a6.607 6.607 0 1 0 13.214 0v-.1a6.634 6.634 0 0 1-6.606 6.551" transform="translate(-75.166 -216.971)" style="fill:#eb9500"/>
                            <g data-name="Group 41253" style="opacity:.3">
                                <g data-name="Group 41252">
                                    <g data-name="Group 41251" style="clip-path:url(#5yfb6q2bje)" transform="translate(2.486 2.519)">
                                        <path data-name="Path 27974" d="M55.575 60.261a7.729 7.729 0 0 1 4.087-4.112 7.645 7.645 0 0 1 8.422 1.656 7.727 7.727 0 0 1 2.249 5.368v-.1a7.73 7.73 0 0 0-4.691-7.121 7.645 7.645 0 0 0-8.422 1.656 7.732 7.732 0 0 0-2.25 5.465v.1a7.717 7.717 0 0 1 .6-2.912" transform="translate(-54.971 -55.348)" style="fill:#eb9500"/>
                                    </g>
                                </g>
                            </g>
                        </g>
                    </g>
                </g>
                <g data-name="Group 41552">
                    <path data-name="Path 28095" d="m28.871 148.4.167.754h6.992l.167-.754z" transform="translate(-22.227 -134.995)" style="fill:#f8f8f8;stroke:transparent;stroke-miterlimit:10"/>
                    <path data-name="Path 28096" d="M5.028 0 2.909 3.595 0 1.32l1.2 4.868h7.659l1.2-4.869-2.912 2.276z" transform="translate(5.28 6.889)" style="fill:#f8f8f8;stroke:transparent;stroke-miterlimit:10"/>
                </g>
            </g>
        </g>
    </g>
</svg>
