<svg xmlns="http://www.w3.org/2000/svg" width="42.298" height="42.298" viewBox="0 0 42.298 42.298">
    <g data-name="Group 40893" style="opacity:.996">
        <path data-name="Rectangle 5798" style="fill:#fff" d="M0 0h42.298v42.298H0z"/>
        <circle data-name="Ellipse 635" cx="17.471" cy="17.471" r="17.471" transform="translate(3.678 3.678)" style="fill:#ffe8c6"/>
        <g data-name="Group 40890">
            <path data-name="Path 27732" d="M351.508 259.44a5.228 5.228 0 1 0 5.228 5.228 5.234 5.234 0 0 0-5.228-5.228z" transform="translate(-325.069 -238.291)" style="fill:#ffc267"/>
            <g data-name="Group 40856">
                <path data-name="Path 27727" d="m249.38 176.5 3.981-1.566v-2.126h-3.981z" transform="translate(-232.046 -155.516)" style="fill:#ff9800"/>
                <path data-name="Path 27728" d="M102.691 39.375h-3.728a.872.872 0 0 0-.823.543l-1.671 4.1h5.469z" transform="translate(-85.251 -27.421)" style="fill:#ff9800"/>
                <path data-name="Path 27729" d="m254.764 44.008-.718-4.638h-2.389l-.757 4.638z" transform="translate(-233.506 -27.416)" style="fill:#ff9800"/>
                <path data-name="Path 27730" d="m353.591 44.006-1.671-4.1a.872.872 0 0 0-.823-.543h-3.833l.718 4.638z" transform="translate(-326.015 -27.414)" style="fill:#ff9800"/>
                <path data-name="Path 27734" d="M141.09 358.75h4.157v2.056h-4.157z" transform="translate(-128.087 -334.02)" style="fill:#ff9800"/>
                <path data-name="Path 27735" d="M107.283 175.581a5.954 5.954 0 0 1 1.3.144v-2.909h-5.731v2.367a.345.345 0 0 1-.223.324l-4.681 1.838a.314.314 0 0 1-.127.026.351.351 0 0 1-.35-.35v-4.2h-5.6v10.391a.909.909 0 0 0 .906.9h9.166a5.94 5.94 0 0 1 5.338-8.523zm-8.583 7.035a.351.351 0 0 1-.35.35h-4.857a.351.351 0 0 1-.35-.35V179.9a.351.351 0 0 1 .35-.35h4.857a.351.351 0 0 1 .35.35z" transform="translate(-80.84 -155.523)" style="fill:#ff9800"/>
            </g>
            <g data-name="Component 191 – 2">
                <path data-name="Path 29501" d="M-.53-2.358H.53l.1-4.687H-.627zM0 .054a.693.693 0 0 0 .71-.689.69.69 0 0 0-.71-.688.689.689 0 0 0-.71.688.692.692 0 0 0 .71.689z" transform="translate(26.518 30.195)" style="fill:#fff"/>
            </g>
        </g>
    </g>
</svg>
